<svg id="visual" viewBox="0 0 900 600" width="900" height="600" xmlns="http://www.w3.org/2000/svg" xmlns:xlink="http://www.w3.org/1999/xlink" version="1.1"><rect x="0" y="0" width="900" height="600" fill="#112031"></rect><path d="M0 447L129 447L129 410L257 410L257 523L386 523L386 398L514 398L514 429L643 429L643 497L771 497L771 407L900 407L900 404L900 0L900 0L771 0L771 0L643 0L643 0L514 0L514 0L386 0L386 0L257 0L257 0L129 0L129 0L0 0Z" fill="#152d35"></path><path d="M0 419L129 419L129 403L257 403L257 427L386 427L386 313L514 313L514 325L643 325L643 330L771 330L771 327L900 327L900 388L900 0L900 0L771 0L771 0L643 0L643 0L514 0L514 0L386 0L386 0L257 0L257 0L129 0L129 0L0 0Z" fill="#3d585c"></path><path d="M0 335L129 335L129 281L257 281L257 303L386 303L386 235L514 235L514 245L643 245L643 224L771 224L771 254L900 254L900 288L900 0L900 0L771 0L771 0L643 0L643 0L514 0L514 0L386 0L386 0L257 0L257 0L129 0L129 0L0 0Z" fill="#6a8786"></path><path d="M0 200L129 200L129 205L257 205L257 195L386 195L386 153L514 153L514 210L643 210L643 225L771 225L771 187L900 187L900 236L900 0L900 0L771 0L771 0L643 0L643 0L514 0L514 0L386 0L386 0L257 0L257 0L129 0L129 0L0 0Z" fill="#9cb9b1"></path><path d="M0 114L129 114L129 103L257 103L257 69L386 69L386 67L514 67L514 110L643 110L643 109L771 109L771 92L900 92L900 51L900 0L900 0L771 0L771 0L643 0L643 0L514 0L514 0L386 0L386 0L257 0L257 0L129 0L129 0L0 0Z" fill="#d4ecdd"></path></svg>